<mxfile host="app.diagrams.net" agent="Mozilla/5.0 (Macintosh; Intel Mac OS X 10_15_7) AppleWebKit/537.36 (KHTML, like Gecko) Chrome/128.0.0.0 Safari/537.36" version="24.7.14">
  <diagram name="Page-1" id="d3BTNPSNrsPT12P5luTq">
    <mxGraphModel dx="1562" dy="961" grid="1" gridSize="10" guides="1" tooltips="1" connect="1" arrows="1" fold="1" page="1" pageScale="1" pageWidth="827" pageHeight="1169" math="0" shadow="0">
      <root>
        <mxCell id="0" />
        <mxCell id="1" parent="0" />
        <mxCell id="swYgRq8f7f4P6zwfwYm9-3" style="edgeStyle=orthogonalEdgeStyle;rounded=0;orthogonalLoop=1;jettySize=auto;html=1;exitX=0.5;exitY=1;exitDx=0;exitDy=0;entryX=0.5;entryY=0;entryDx=0;entryDy=0;" edge="1" parent="1" source="swYgRq8f7f4P6zwfwYm9-1" target="swYgRq8f7f4P6zwfwYm9-2">
          <mxGeometry relative="1" as="geometry" />
        </mxCell>
        <mxCell id="swYgRq8f7f4P6zwfwYm9-7" style="edgeStyle=orthogonalEdgeStyle;rounded=0;orthogonalLoop=1;jettySize=auto;html=1;exitX=0.5;exitY=1;exitDx=0;exitDy=0;entryX=0.5;entryY=0;entryDx=0;entryDy=0;" edge="1" parent="1" source="swYgRq8f7f4P6zwfwYm9-1" target="swYgRq8f7f4P6zwfwYm9-6">
          <mxGeometry relative="1" as="geometry" />
        </mxCell>
        <mxCell id="swYgRq8f7f4P6zwfwYm9-9" style="edgeStyle=orthogonalEdgeStyle;rounded=0;orthogonalLoop=1;jettySize=auto;html=1;exitX=0.5;exitY=1;exitDx=0;exitDy=0;entryX=0.5;entryY=0;entryDx=0;entryDy=0;" edge="1" parent="1" source="swYgRq8f7f4P6zwfwYm9-1" target="swYgRq8f7f4P6zwfwYm9-8">
          <mxGeometry relative="1" as="geometry" />
        </mxCell>
        <mxCell id="swYgRq8f7f4P6zwfwYm9-15" style="edgeStyle=orthogonalEdgeStyle;rounded=0;orthogonalLoop=1;jettySize=auto;html=1;exitX=0.5;exitY=1;exitDx=0;exitDy=0;entryX=0.5;entryY=0;entryDx=0;entryDy=0;" edge="1" parent="1" source="swYgRq8f7f4P6zwfwYm9-1" target="swYgRq8f7f4P6zwfwYm9-14">
          <mxGeometry relative="1" as="geometry">
            <Array as="points">
              <mxPoint x="390" y="120" />
              <mxPoint x="490" y="120" />
            </Array>
          </mxGeometry>
        </mxCell>
        <mxCell id="swYgRq8f7f4P6zwfwYm9-1" value="Quiz" style="rounded=0;whiteSpace=wrap;html=1;fillColor=#7EA6E0;strokeColor=#6c8ebf;" vertex="1" parent="1">
          <mxGeometry x="330" y="40" width="120" height="60" as="geometry" />
        </mxCell>
        <mxCell id="swYgRq8f7f4P6zwfwYm9-5" style="edgeStyle=orthogonalEdgeStyle;rounded=0;orthogonalLoop=1;jettySize=auto;html=1;exitX=1;exitY=0.5;exitDx=0;exitDy=0;entryX=0;entryY=0.5;entryDx=0;entryDy=0;" edge="1" parent="1" source="swYgRq8f7f4P6zwfwYm9-2" target="swYgRq8f7f4P6zwfwYm9-4">
          <mxGeometry relative="1" as="geometry" />
        </mxCell>
        <mxCell id="swYgRq8f7f4P6zwfwYm9-2" value="MongoDB Database" style="rounded=0;whiteSpace=wrap;html=1;fillColor=#7EA6E0;" vertex="1" parent="1">
          <mxGeometry x="150" y="140" width="120" height="60" as="geometry" />
        </mxCell>
        <mxCell id="swYgRq8f7f4P6zwfwYm9-4" value="MongoDB Collection" style="rounded=0;whiteSpace=wrap;html=1;fillColor=#7EA6E0;" vertex="1" parent="1">
          <mxGeometry x="340" y="140" width="120" height="60" as="geometry" />
        </mxCell>
        <mxCell id="swYgRq8f7f4P6zwfwYm9-13" style="edgeStyle=orthogonalEdgeStyle;rounded=0;orthogonalLoop=1;jettySize=auto;html=1;exitX=0.5;exitY=1;exitDx=0;exitDy=0;entryX=0.5;entryY=0;entryDx=0;entryDy=0;" edge="1" parent="1" source="swYgRq8f7f4P6zwfwYm9-6" target="swYgRq8f7f4P6zwfwYm9-11">
          <mxGeometry relative="1" as="geometry" />
        </mxCell>
        <mxCell id="swYgRq8f7f4P6zwfwYm9-6" value="Initialise Question Array" style="rounded=0;whiteSpace=wrap;html=1;fillColor=#7EA6E0;" vertex="1" parent="1">
          <mxGeometry x="500" y="140" width="120" height="60" as="geometry" />
        </mxCell>
        <mxCell id="swYgRq8f7f4P6zwfwYm9-10" style="edgeStyle=orthogonalEdgeStyle;rounded=0;orthogonalLoop=1;jettySize=auto;html=1;exitX=0.5;exitY=1;exitDx=0;exitDy=0;entryX=0.5;entryY=0;entryDx=0;entryDy=0;" edge="1" parent="1" source="swYgRq8f7f4P6zwfwYm9-8" target="swYgRq8f7f4P6zwfwYm9-11">
          <mxGeometry relative="1" as="geometry">
            <mxPoint x="710" y="250" as="targetPoint" />
          </mxGeometry>
        </mxCell>
        <mxCell id="swYgRq8f7f4P6zwfwYm9-8" value="Define ask question function" style="rounded=0;whiteSpace=wrap;html=1;fillColor=#7EA6E0;" vertex="1" parent="1">
          <mxGeometry x="650" y="140" width="120" height="60" as="geometry" />
        </mxCell>
        <mxCell id="swYgRq8f7f4P6zwfwYm9-19" style="edgeStyle=orthogonalEdgeStyle;rounded=0;orthogonalLoop=1;jettySize=auto;html=1;exitX=0.5;exitY=1;exitDx=0;exitDy=0;entryX=0.5;entryY=0;entryDx=0;entryDy=0;" edge="1" parent="1" source="swYgRq8f7f4P6zwfwYm9-11" target="swYgRq8f7f4P6zwfwYm9-18">
          <mxGeometry relative="1" as="geometry" />
        </mxCell>
        <mxCell id="swYgRq8f7f4P6zwfwYm9-11" value="selects a random question from the question array" style="rounded=0;whiteSpace=wrap;html=1;fillColor=#7EA6E0;" vertex="1" parent="1">
          <mxGeometry x="650" y="260" width="120" height="60" as="geometry" />
        </mxCell>
        <mxCell id="swYgRq8f7f4P6zwfwYm9-21" style="edgeStyle=orthogonalEdgeStyle;rounded=0;orthogonalLoop=1;jettySize=auto;html=1;exitX=0;exitY=0.5;exitDx=0;exitDy=0;entryX=1;entryY=0.5;entryDx=0;entryDy=0;" edge="1" parent="1" source="swYgRq8f7f4P6zwfwYm9-14" target="swYgRq8f7f4P6zwfwYm9-16">
          <mxGeometry relative="1" as="geometry" />
        </mxCell>
        <mxCell id="swYgRq8f7f4P6zwfwYm9-14" value="ask for users name" style="rounded=0;whiteSpace=wrap;html=1;fillColor=#7EA6E0;" vertex="1" parent="1">
          <mxGeometry x="430" y="260" width="120" height="60" as="geometry" />
        </mxCell>
        <mxCell id="swYgRq8f7f4P6zwfwYm9-17" style="edgeStyle=orthogonalEdgeStyle;rounded=0;orthogonalLoop=1;jettySize=auto;html=1;exitX=0.5;exitY=0;exitDx=0;exitDy=0;entryX=0.5;entryY=1;entryDx=0;entryDy=0;" edge="1" parent="1" source="swYgRq8f7f4P6zwfwYm9-16" target="swYgRq8f7f4P6zwfwYm9-4">
          <mxGeometry relative="1" as="geometry" />
        </mxCell>
        <mxCell id="swYgRq8f7f4P6zwfwYm9-23" style="edgeStyle=orthogonalEdgeStyle;rounded=0;orthogonalLoop=1;jettySize=auto;html=1;exitX=0;exitY=0.5;exitDx=0;exitDy=0;entryX=1;entryY=0.5;entryDx=0;entryDy=0;" edge="1" parent="1" source="swYgRq8f7f4P6zwfwYm9-16" target="swYgRq8f7f4P6zwfwYm9-22">
          <mxGeometry relative="1" as="geometry" />
        </mxCell>
        <mxCell id="swYgRq8f7f4P6zwfwYm9-16" value="stores the score, name, total questions in the database" style="rounded=0;whiteSpace=wrap;html=1;fillColor=#7EA6E0;" vertex="1" parent="1">
          <mxGeometry x="280" y="260" width="120" height="60" as="geometry" />
        </mxCell>
        <mxCell id="swYgRq8f7f4P6zwfwYm9-20" style="edgeStyle=orthogonalEdgeStyle;rounded=0;orthogonalLoop=1;jettySize=auto;html=1;exitX=0;exitY=0.5;exitDx=0;exitDy=0;entryX=0.5;entryY=1;entryDx=0;entryDy=0;" edge="1" parent="1" source="swYgRq8f7f4P6zwfwYm9-18" target="swYgRq8f7f4P6zwfwYm9-16">
          <mxGeometry relative="1" as="geometry" />
        </mxCell>
        <mxCell id="swYgRq8f7f4P6zwfwYm9-18" value="determines the score of a user" style="rounded=0;whiteSpace=wrap;html=1;fillColor=#7EA6E0;" vertex="1" parent="1">
          <mxGeometry x="650" y="340" width="120" height="60" as="geometry" />
        </mxCell>
        <mxCell id="swYgRq8f7f4P6zwfwYm9-22" value="Outputs the score out of the total length of the question array" style="rounded=0;whiteSpace=wrap;html=1;fillColor=#7EA6E0;" vertex="1" parent="1">
          <mxGeometry x="110" y="260" width="120" height="60" as="geometry" />
        </mxCell>
      </root>
    </mxGraphModel>
  </diagram>
</mxfile>
